# xmcd CD database file
#
# Track frame offsets:
#	150
#	26865
#	47025
#	70092
#	94345
#	116040
#	141475
#	164895
#	186680
#	213790
#	232450
#	251307
#
# Disc length: 3767 seconds
#
# Revision: 0
# Processed by: cddbd v1.4PL0 Copyright (c) Steve Scherf et al.
# Submitted via: Feurio! 1.65 - http://www.feurio.com
#
DISCID=c20eb50c
DTITLE=Southern Gentlemen - Exotic Dancer Blues
DYEAR=2000
DGENRE=Blues Rock
TTITLE0=Drive Me Wild
TTITLE1=Exotic Dancer Blues
TTITLE2=I Feel So Blue
TTITLE3=Don't Be Shy
TTITLE4=Too Hot For Love
TTITLE5=Madness In The Dark
TTITLE6=What To Do
TTITLE7=Down To New Orleans
TTITLE8=Back Door Woman
TTITLE9=Ease The Pain
TTITLE10=Tonight
TTITLE11=Time Traveler
EXTD=Academy Records 2000
EXTT0=
EXTT1=
EXTT2=
EXTT3=
EXTT4=
EXTT5=
EXTT6=
EXTT7=
EXTT8=
EXTT9=
EXTT10=
EXTT11=
PLAYORDER=
